# xmcd
#
# Track frame offsets:
#	150
#	12834
#	25033
#	37653
#	51670
#	64586
#	75395
#	88789
#	99956
#	111686
#	123387
#	135951
#	145768
#	157173
#	167933
#	176943
#	187259
#	195672
#	207178
#
# Disc length: 2889 seconds
#
# Revision: 0
# Processed by: cddbd v1.5.2PL0 Copyright (c) Steve Scherf et al.
# Submitted via: EZCDAudioConverter 4.0.5.1
#
DISCID=090b4713
DTITLE=Hank Locklin - Hank Locklin - Five Classic Albums [CD04)
DYEAR=2013
DGENRE=Country
TTITLE0=No One's Sweeter Thanyou
TTITLE1=A Year Of Time
TTITLE2=The Song Of The Whispering Leaves
TTITLE3=Your House Of Love Won't Stand
TTITLE4=Crazy Over You
TTITLE5=Stumpy Joe
TTITLE6=Tell Me You Love Me
TTITLE7=Down Texas Way
TTITLE8=The Harvest Is Ripe (The Laborers Are Few)
TTITLE9=Who Is Knocking At My Heart?
TTITLE10=(Sittin') Alone At A Table For Two
TTITLE11=Your Heart Is An Island
TTITLE12=Knocking At Your Door
TTITLE13=Why Baby Why
TTITLE14=That Inner Glow
TTITLE15=I Gotta Talk To Your Heart
TTITLE16=Border Of The Blues
TTITLE17=One Step Ahead Of My Past
TTITLE18=We're Gonna Go Fishin'
EXTD=
EXTT0=
EXTT1=
EXTT2=
EXTT3=
EXTT4=
EXTT5=
EXTT6=
EXTT7=
EXTT8=
EXTT9=
EXTT10=
EXTT11=
EXTT12=
EXTT13=
EXTT14=
EXTT15=
EXTT16=
EXTT17=
EXTT18=
PLAYORDER=
